<svg xmlns="http://www.w3.org/2000/svg" width="22.998" height="23.052" viewBox="0 0 22.998 23.052">
  <path id="comment" d="M58.208,652.419a11.547,11.547,0,0,1,11.1-14.607,12.527,12.527,0,0,1,3.163.419,11.268,11.268,0,0,1,7.974,8.165,11.684,11.684,0,0,1-.836,8.068,1.7,1.7,0,0,0-.129,1.2h0L80.8,660.6l-4.786-1.283h0a1.6,1.6,0,0,0-.428-.057,1.722,1.722,0,0,0-.822.216,11.441,11.441,0,0,1-5.453,1.388,11.91,11.91,0,0,1-2.835-.346h0a11.649,11.649,0,0,1-5.121-3.048A11.451,11.451,0,0,1,58.208,652.419Zm11.1-12.951A9.775,9.775,0,0,0,61.52,643.3a10.031,10.031,0,0,0-1.712,8.7A9.8,9.8,0,0,0,62.5,656.28a10.013,10.013,0,0,0,4.361,2.628,10.457,10.457,0,0,0,2.448.3,9.7,9.7,0,0,0,4.662-1.183,3.321,3.321,0,0,1,2.463-.3h0l2.03.543-.58-2.172a3.355,3.355,0,0,1,.249-2.368,9.976,9.976,0,0,0,.711-6.932,9.558,9.558,0,0,0-6.8-6.96h0A10.5,10.5,0,0,0,69.311,639.467Z" transform="translate(-57.811 -637.812)" fill-rule="evenodd"/>
</svg>
