<svg xmlns="http://www.w3.org/2000/svg" width="25.425" height="23.127" viewBox="0 0 25.425 23.127">
  <path id="heart" d="M311.444,52.627a2.083,2.083,0,0,1-1.287-.447c-2.553-1.981-8.656-6.909-10.188-9.9a8.769,8.769,0,0,1,2.676-11.17A6.768,6.768,0,0,1,306.331,30a6.931,6.931,0,0,1,5.112,2.3,6.935,6.935,0,0,1,5.112-2.3,6.763,6.763,0,0,1,3.687,1.115,8.777,8.777,0,0,1,2.681,11.17c-1.532,2.986-7.634,7.914-10.188,9.9A2.109,2.109,0,0,1,311.444,52.627Zm-5.112-20.971a5.222,5.222,0,0,0-2.844.861,7.049,7.049,0,0,0-2.119,8.984c1.42,2.77,7.808,7.859,9.732,9.349a.562.562,0,0,0,.683,0c1.923-1.5,8.312-6.584,9.732-9.349a7.048,7.048,0,0,0-2.119-8.984,5.193,5.193,0,0,0-2.84-.861,5.523,5.523,0,0,0-4.477,2.417l-.636.894-.636-.894A5.514,5.514,0,0,0,306.331,31.656Z" transform="translate(-298.732 -29.75)" stroke="#000" stroke-width="0.5"/>
</svg>
