<svg xmlns="http://www.w3.org/2000/svg" width="127.84" height="36.203" viewBox="0 0 127.84 36.203">
  <path id="instagram-svg" d="M22.58,24.127a12.013,12.013,0,0,0-6.4,8.059c-1.15,4.913,3.637,6.99,4.03,6.309.462-.8-.858-1.071-1.13-3.62a10.7,10.7,0,0,1,3.111-8.585c.359-.3.342.117.342.889,0,1.381-.076,13.774-.076,16.36a22.9,22.9,0,0,1-.4,5.7c-.263,1.107-.687,1.854-.366,2.143.359.322,1.89-.444,2.776-1.679a9.2,9.2,0,0,0,1.5-5.192c.081-2.329.077-6.024.081-8.132,0-1.933.033-7.594-.034-11-.016-.835-2.335-1.71-3.43-1.253Zm92.914,16.379a10.678,10.678,0,0,1-.989,4.245c-.97,1.942-2.981,2.545-3.835-.247a15.747,15.747,0,0,1-.152-6.187c.341-2.163,1.291-3.8,2.866-3.65,1.553.146,2.281,2.144,2.11,5.838ZM89.306,51.794c-.021,3.023-.5,5.674-1.52,6.444-1.45,1.092-3.4.273-2.995-1.933.357-1.952,2.045-3.946,4.519-6.382,0,0,.005.555,0,1.871Zm-.4-11.306a11.946,11.946,0,0,1-.988,4.263c-.969,1.942-3,2.549-3.835-.247a14,14,0,0,1-.152-5.94c.369-2.021,1.262-3.9,2.867-3.9,1.56,0,2.329,1.709,2.109,5.821Zm-15.17-.025a10.8,10.8,0,0,1-.989,4.288c-1,1.929-2.966,2.54-3.835-.247a14.916,14.916,0,0,1-.153-6.23c.387-2.2,1.355-3.754,2.867-3.606,1.553.151,2.307,2.144,2.109,5.8Zm69.522,2.05c-.38,0-.553.391-.7,1.048-.5,2.286-1.02,2.8-1.694,2.8-.752,0-1.429-1.132-1.6-3.4a75.58,75.58,0,0,1,.06-8.325c.036-.67-.149-1.334-1.95-1.987-.775-.281-1.9-.695-2.463.657a33.6,33.6,0,0,0-2.351,8.083c-.008.064-.086.077-.1-.072a62.752,62.752,0,0,1-.327-6.546,1.959,1.959,0,0,0-.973-1.872c-.527-.332-2.128-.92-2.705-.221a14.748,14.748,0,0,0-1.679,3.935c-.489,1.482-.828,2.485-.828,2.485s.006-4,.012-5.518a.778.778,0,0,0-.51-.8,10.685,10.685,0,0,0-2.032-.413c-.551,0-.686.307-.686.755,0,.059-.087,5.267-.087,8.909,0,.158,0,.331,0,.514-.3,1.674-1.292,3.946-2.367,3.946s-1.584-.95-1.584-5.291c0-2.533.077-3.634.114-5.466.021-1.055.063-1.865.061-2.049-.008-.564-.984-.848-1.439-.953a4.26,4.26,0,0,0-1.163-.129.726.726,0,0,0-.749.707c0,.212,0,.615,0,.615a4.194,4.194,0,0,0-2.078-1.681,4,4,0,0,0-4.608,1.735,10.542,10.542,0,0,0-1.874,5.347,15.845,15.845,0,0,0,.195,4.859c-.379,1.637-1.084,2.308-1.855,2.308-1.12,0-1.931-1.824-1.837-4.979a28.563,28.563,0,0,1,.933-5.638,1.823,1.823,0,0,0-.359-1.819A2.262,2.262,0,0,0,101.8,33.7c-.791.185-1.921.384-2.955.537a5.949,5.949,0,0,0,.114-.687c.269-2.3-2.232-2.112-3.03-1.378a2.825,2.825,0,0,0-.924,1.884,2.221,2.221,0,0,0,1.01,2.17A22.415,22.415,0,0,1,93.651,42.1a25.344,25.344,0,0,1-1.475,2.311q0-.4,0-.8c-.012-3.8.038-6.786.061-7.864.022-1.055.064-1.844.062-2.028-.006-.412-.247-.568-.749-.765a5.329,5.329,0,0,0-1.512-.337c-.687-.053-1.1.31-1.09.74,0,.081,0,.58,0,.58a4.2,4.2,0,0,0-2.078-1.681,4,4,0,0,0-4.608,1.735,11.432,11.432,0,0,0-1.874,5.33,16.314,16.314,0,0,0,.1,4.571c-.259,1.277-1,2.613-1.845,2.613-1.076,0-1.688-.95-1.688-5.292,0-2.533.076-3.634.114-5.466.022-1.055.064-1.866.061-2.049-.008-.564-.985-.848-1.439-.953a4.191,4.191,0,0,0-1.2-.127.772.772,0,0,0-.708.68v.639A4.2,4.2,0,0,0,71.7,32.249a4.014,4.014,0,0,0-4.608,1.735,10.114,10.114,0,0,0-1.874,5.3,17.827,17.827,0,0,0-.14,2.318c-.336,2.049-1.818,4.411-3.031,4.411-.71,0-1.386-1.374-1.386-4.3,0-3.9.242-9.455.283-9.99,0,0,1.532-.026,1.829-.029.764-.008,1.456.01,2.474-.042.511-.026,1-1.855.476-2.082a18.254,18.254,0,0,0-2.6-.206c-.563-.013-2.129-.128-2.129-.128s.141-3.687.173-4.076c.028-.325-.393-.492-.634-.593a8.693,8.693,0,0,0-1.733-.494c-.859-.177-1.249,0-1.326.72-.115,1.1-.174,4.318-.174,4.318-.631,0-2.785-.123-3.416-.123-.586,0-1.219,2.516-.408,2.547.932.036,2.557.067,3.634.1,0,0-.048,5.646-.048,7.388,0,.185,0,.364,0,.537a8.521,8.521,0,0,1-2.681,4.751c.448-2.041-.468-3.573-2.118-4.87-.608-.478-1.808-1.383-3.151-2.375a8.092,8.092,0,0,0,1.467-2.3c.489-1.09.51-2.338-.69-2.613a3.585,3.585,0,0,0-4.1,2.549,2.952,2.952,0,0,0,.564,3.02c.054.068.113.137.173.206-.447.861-1.062,2.02-1.583,2.918-1.445,2.5-2.536,4.469-3.361,4.469-.659,0-.65-2-.65-3.88,0-1.617.12-4.049.215-6.566a1.833,1.833,0,0,0-1.084-1.736,4.878,4.878,0,0,0-1.856-.774c-.786,0-3.053.107-5.2,6.293-.27.78-.8,2.2-.8,2.2l.046-7.439a.518.518,0,0,0-.306-.458,5.3,5.3,0,0,0-2.183-.6q-.613,0-.612.568l-.075,11.639a17.082,17.082,0,0,0,.111,2.367,2.48,2.48,0,0,0,.4,1.038,1.158,1.158,0,0,0,.71.453c.31.064,2.01.282,2.1-.367a23.8,23.8,0,0,1,1-4.751c1.389-4.879,3.2-7.26,4.052-8.106.149-.148.319-.157.311.085-.036,1.07-.164,3.743-.25,6.014-.231,6.077.877,7.2,2.46,7.2,1.211,0,2.918-1.2,4.747-4.241,1.141-1.895,2.248-3.752,3.044-5.091.554.512,1.177,1.064,1.8,1.653,1.445,1.369,1.92,2.67,1.6,3.9-.241.944-1.148,1.916-2.761.971-.47-.276-.671-.489-1.144-.8a.814.814,0,0,0-.875-.042A3.107,3.107,0,0,0,45.245,46.6c-.192.7.507,1.065,1.232,1.387a9.576,9.576,0,0,0,2.821.557c3.333.111,6-1.606,7.861-6.037.333,3.826,1.749,5.992,4.209,5.992,1.644,0,3.293-2.122,4.015-4.21a7.39,7.39,0,0,0,.909,2.217c1.9,3,5.573,2.353,7.42-.193a4.738,4.738,0,0,0,.658-1.069,3.474,3.474,0,0,0,3.319,3.244c1.244,0,2.528-.587,3.427-2.609a6.192,6.192,0,0,0,.346.628c1.9,3,5.573,2.353,7.42-.193.087-.119.163-.228.229-.325l.054,1.579-1.7,1.557c-2.847,2.607-5.011,4.586-5.171,6.889-.2,2.937,2.182,4.029,3.987,4.172A5.093,5.093,0,0,0,90.848,57.8c.888-1.3,1.469-4.105,1.426-6.874-.017-1.109-.045-2.518-.067-4.029a32.279,32.279,0,0,0,3.166-4.342,32.834,32.834,0,0,0,2.964-6.336s1.053.009,2.177-.064c.36-.023.463.05.4.313-.08.318-1.42,5.477-.2,8.914a4.314,4.314,0,0,0,3.843,3.11,3.812,3.812,0,0,0,3.234-2.453,5.147,5.147,0,0,0,.258.468c1.9,3,5.56,2.349,7.42-.193a7.551,7.551,0,0,0,.657-1.069,3.607,3.607,0,0,0,3.447,3.256c1.157,0,2.255-.473,3.145-2.576a9.506,9.506,0,0,0,.188,1.922c.057.146.385.329.624.418a4.785,4.785,0,0,0,2.535.126c.277-.056.492-.277.522-.849a33.737,33.737,0,0,1,.486-5.9,17.289,17.289,0,0,1,1.818-4.971c.189-.339.4-.394.411-.036.016.725.052,2.854.348,5.714a13.041,13.041,0,0,0,.732,3.741,2.064,2.064,0,0,0,2.068,1.179c.408,0,1.261-.113,1.186-.829a22.817,22.817,0,0,1,.783-5.606,27.219,27.219,0,0,1,1.61-4.522c.11-.247.161-.052.158-.014a40.583,40.583,0,0,0,.367,8.448c.772,3.378,3,3.756,3.78,3.756,1.66,0,3.017-1.26,3.474-4.576.11-.8-.053-1.414-.542-1.414" transform="translate(-16 -24)"/>
</svg>
