<svg xmlns="http://www.w3.org/2000/svg" xmlns:xlink="http://www.w3.org/1999/xlink" viewBox="0 0 1008.6 228"><defs><style>.cls-1{fill:url(#linear-gradient);}.cls-2{fill:url(#linear-gradient-2);}.cls-3{fill:#235884;}.cls-4{fill:#2c3835;}</style><linearGradient id="linear-gradient" x1="87.15" y1="203.13" x2="87.15" gradientUnits="userSpaceOnUse"><stop offset="0" stop-color="#e691bd"/><stop offset="1" stop-color="#f1c7b1"/></linearGradient><linearGradient id="linear-gradient-2" x1="261.17" y1="203.63" x2="261.17" y2="0.97" gradientUnits="userSpaceOnUse"><stop offset="0" stop-color="#b6cdea"/><stop offset="1" stop-color="#ebedf7"/></linearGradient></defs><g id="Layer_2" data-name="Layer 2"><g id="Layer_1-2" data-name="Layer 1"><path class="cls-1" d="M174,172.54c-17.73,18.18-38.8,28.39-64.58,30.27C80.76,204.9,55.63,196.76,34.2,179A92.63,92.63,0,0,1,6.47,139.45C-6.76,102.76-.3,56.67,31.4,28.49,52.37,9.84,76.55-1,104.62.08c24.26,1,46,10.14,64.31,26.57,1.62,1.46,2.95,3,5.07,3.56.1,1,.2,2.08.31,3.12-36.56,40.72-38.75,94.34-.31,137.56A2,2,0,0,0,174,172.54ZM64,118.28c4.58.1,8.73-1.08,11.18-5.18,2-3.3,5.07-7.82,1.08-10.62-5.18-3.61-4.77,2.55-6.57,5.17-3.9,5.65-8.18,5.6-11.46-.66-1.44-2.76-1.64-7.33-6.13-4.67-3.51,2.07-1.58,6-.29,8.78C54.11,116.18,58.38,118.51,64,118.28ZM25.09,79.92c-5.11.66-8.73,3.2-8.63,8.79.08,4.91,3.08,7.93,8.06,8.15s8.24-2.66,8.71-7.47C33.77,83.92,30.42,81,25.09,79.92Zm97,8.73c-.76-4.8-3.31-8.45-8.81-8.46-4.85,0-8.08,2.78-8.32,7.85s2.45,8.16,7.38,8.75C117.93,97.46,120.78,94.17,122.07,88.65Z"/><path class="cls-2" d="M174.31,33.33c-.11-1-.21-2.08-.31-3.12,12.65-8.63,24.85-17.66,39.6-23.15,21.53-8,42.92-7.77,64.18-1.28,35.57,10.87,58.62,35.56,67.47,71,5.53,22.1,4.39,45.16-5.79,67.14-14.37,31-38.71,50-70.94,57.14-24,5.32-48.61,2.79-70.69-10.52-8.56-5.16-17.07-10.44-23.87-18a2,2,0,0,1,0-1.65C211.39,134.35,211,69.1,174.31,33.33Zm111.84,84.93c5.26-.32,10-3.34,11.54-10.23.58-2.52.83-5.35-2.23-6.28-2.4-.74-3.36,1.36-4.52,3.34-5.25,8.91-7.26,8.85-13-.16-1.19-1.86-2.15-3.94-4.74-3-2.41.92-2.61,3.1-2.14,5.37C272.61,114.69,277.14,118.29,286.15,118.26ZM323.24,96.8c5.12-.11,8.41-2.62,8.73-7.63.36-5.63-3.12-8.86-8.47-8.92-5-.06-8.13,3.29-8.19,8.19S318.27,96.25,323.24,96.8ZM235.46,80c-4.84.55-8.32,3.17-8.62,8s2.47,8.33,7.57,8.66c5.51.35,8.94-2.5,9.09-8.19C243.64,83.26,240.12,81,235.46,80Z"/><path class="cls-3" d="M174.31,33.33c36.69,35.77,37.08,101-.31,137.56C135.56,127.67,137.75,74.05,174.31,33.33Z"/><path class="cls-4" d="M64,118.27c-5.61.24-9.88-2.09-12.2-7.17-1.29-2.83-3.22-6.71.29-8.78,4.49-2.66,4.69,1.91,6.13,4.67,3.28,6.26,7.56,6.31,11.46.66,1.8-2.62,1.39-8.78,6.57-5.17,4,2.8.9,7.32-1.08,10.62C72.71,117.2,68.56,118.38,64,118.27Z"/><path class="cls-4" d="M25.09,79.92c5.33,1,8.68,4,8.14,9.47-.47,4.81-3.69,7.7-8.71,7.47s-8-3.24-8.06-8.15C16.36,83.12,20,80.58,25.09,79.92Z"/><path class="cls-4" d="M122.07,88.65c-1.29,5.52-4.14,8.81-9.75,8.14-4.93-.59-7.61-3.77-7.38-8.75s3.47-7.86,8.32-7.85C118.76,80.2,121.31,83.85,122.07,88.65Z"/><path class="cls-4" d="M286.15,118.26c-9,0-13.54-3.57-15.07-10.92-.47-2.27-.27-4.45,2.14-5.37,2.59-1,3.55,1.1,4.74,3,5.72,9,7.73,9.07,13,.16,1.16-2,2.12-4.08,4.52-3.34,3.06.93,2.81,3.76,2.23,6.28C296.1,114.92,291.41,117.94,286.15,118.26Z"/><path class="cls-4" d="M323.24,96.8c-5-.55-8-3.47-7.93-8.36s3.23-8.25,8.19-8.19c5.35.06,8.83,3.29,8.47,8.92C331.65,94.18,328.36,96.69,323.24,96.8Z"/><path class="cls-4" d="M235.46,80c4.66,1,8.18,3.25,8,8.49-.15,5.69-3.58,8.54-9.09,8.19-5.1-.33-7.88-3.86-7.57-8.66S230.62,80.56,235.46,80Z"/><path class="cls-3" d="M444.92,64.82a5,5,0,0,1-.71,2.83,4.61,4.61,0,0,1-1.78,1.6,7.42,7.42,0,0,1-2.13.71,11,11,0,0,1-1.77.18,4.39,4.39,0,0,1-4.17-3q-1.33-3-3.19-6.44a21.34,21.34,0,0,0-5.5-6.45q-3.65-3-11.26-2.95a16.64,16.64,0,0,0-8.16,1.95,19.45,19.45,0,0,0-5.95,5,20.92,20.92,0,0,0-3.54,6.65,23.69,23.69,0,0,0-1.16,7.19,25.76,25.76,0,0,0,2,10.37,32.92,32.92,0,0,0,5.77,8.87,66.23,66.23,0,0,0,8.87,8.16q5.14,4,11.17,8.43,5.15,3.72,10,7.63a65.14,65.14,0,0,1,8.7,8.33,40.19,40.19,0,0,1,6.12,9.49,26.09,26.09,0,0,1,2.3,10.91A16.09,16.09,0,0,1,447,155.1a26.86,26.86,0,0,1-9.14,6.83,43.6,43.6,0,0,1-12.15,3.55,88.6,88.6,0,0,1-12.86,1,86.49,86.49,0,0,1-13.13-1.06,51.14,51.14,0,0,1-12.77-3.64,29.57,29.57,0,0,1-9.66-6.56,13.68,13.68,0,0,1-3.82-9.85,10.22,10.22,0,0,1,3.64-8.33q3.63-3,10.55-4.44c-.24.71-.74,1.93-1.5,3.64a17.27,17.27,0,0,0-1.16,7,10.49,10.49,0,0,0,3.19,8,21.55,21.55,0,0,0,7.63,4.61,37.58,37.58,0,0,0,9.14,2q4.69.43,7.71.44a29.69,29.69,0,0,0,5.41-.7,37.42,37.42,0,0,0,6.83-2.13,18,18,0,0,0,5.77-3.81A7.85,7.85,0,0,0,433,145.9a11.24,11.24,0,0,0-1.68-5.58,35,35,0,0,0-4.53-6,73.93,73.93,0,0,0-6.56-6.29q-3.72-3.18-8-6.38-6.21-4.78-12.24-9.74a99.6,99.6,0,0,1-10.82-10.27,54,54,0,0,1-7.81-11.07,25.76,25.76,0,0,1-3-12.13q0-9.73,3.64-16.56a32.4,32.4,0,0,1,9.4-11.07,39.09,39.09,0,0,1,12.68-6.2,49.53,49.53,0,0,1,13.48-2,71.54,71.54,0,0,1,10.38.8,57.9,57.9,0,0,1,9.93,2.31,23.15,23.15,0,0,1,7.45,3.9,7.08,7.08,0,0,1,2.93,5.59,7.66,7.66,0,0,1-1.69,4.7A7.83,7.83,0,0,0,444.92,64.82Z"/><path class="cls-3" d="M508.06,125.83a35.84,35.84,0,0,1-1.6,9.94,33.52,33.52,0,0,1-5,10.2,29.15,29.15,0,0,1-8.61,7.89,23.49,23.49,0,0,1-12.5,3.19,25.31,25.31,0,0,1-11.71-2.48,22.4,22.4,0,0,1-7.89-6.74,27.24,27.24,0,0,1-4.44-10A54.38,54.38,0,0,1,455,125.66,73.93,73.93,0,0,1,456.44,112a59.23,59.23,0,0,1,4.44-13.93,34.92,34.92,0,0,1,7.63-10.82,15.7,15.7,0,0,1,11.17-4.34,14,14,0,0,1,6,1.33,17.51,17.51,0,0,1,5,3.46,16.08,16.08,0,0,1,3.37,5,17.29,17.29,0,0,1,1.42,5.86l.17,2.48a34.47,34.47,0,0,1-1.42,9.31,36.58,36.58,0,0,1-4.08,9.4,25.92,25.92,0,0,1-6.56,7.28,14.4,14.4,0,0,1-8.87,2.92,18.56,18.56,0,0,1-2.21-.17,17.87,17.87,0,0,1-2.58-.54v5.15a11.85,11.85,0,0,0,.8,3.54,17.42,17.42,0,0,0,2.4,4.53,15.34,15.34,0,0,0,4.17,3.9,11.16,11.16,0,0,0,6.29,1.68,15.76,15.76,0,0,0,8.43-2,17.68,17.68,0,0,0,5.41-5.24,25.74,25.74,0,0,0,3.28-7.18q1.16-4,1.86-7.72a12.59,12.59,0,0,1,1.07-3.37,1.89,1.89,0,0,1,1.77-.88c1.77,0,2.66,1,2.66,3ZM487.13,98.34a6.82,6.82,0,0,0-.8-3,3,3,0,0,0-2.93-1.59c-2.12,0-4,1.12-5.49,3.37a32.63,32.63,0,0,0-3.82,7.71,55.07,55.07,0,0,0-2.21,8.34,37.83,37.83,0,0,0-.71,5.23v.54a10,10,0,0,0,.26,2.57c.18.65.8,1,1.86,1h.89a7.92,7.92,0,0,0,6-2.66,20.33,20.33,0,0,0,4-6.38,38.43,38.43,0,0,0,2.22-7.63,37.49,37.49,0,0,0,.71-6.39Z"/><path class="cls-3" d="M539.45,148a5.27,5.27,0,0,1-1.5,3.73,15.73,15.73,0,0,1-3.73,2.84,19.89,19.89,0,0,1-4.61,1.86,16.72,16.72,0,0,1-4,.62,40.14,40.14,0,0,1-6.65-.62,13.38,13.38,0,0,1-6.12-2.57,16.62,16.62,0,0,1-4.7-7.36,58.55,58.55,0,0,1-2.84-12.06q-1-7-1.33-15.61t-.36-18q0-3.9.27-8.69c.18-3.19.38-6.53.62-10s.53-7,.89-10.47.71-6.82,1.06-10c.36-2.24.77-4.67,1.24-7.27s1-5.08,1.51-7.45a48.33,48.33,0,0,1,1.86-6.38,11.5,11.5,0,0,1,2.31-4.08,7,7,0,0,1,3.81-1.87,24.64,24.64,0,0,1,4.35-.44,9.73,9.73,0,0,1,6.56,2.13A13.53,13.53,0,0,1,531.92,42a34,34,0,0,1,1.77,8.34q.43,4.7.44,10,0,8.16-.53,17.65a160.15,160.15,0,0,1-2.22,19.07,122.52,122.52,0,0,1-4.79,18.62,67.74,67.74,0,0,1-8.24,16.5q.17,2.49.62,5.76a35.7,35.7,0,0,0,1.33,6.12,16.42,16.42,0,0,0,2.3,4.79,4.41,4.41,0,0,0,3.73,2,5.32,5.32,0,0,0,3.37-1,13.71,13.71,0,0,0,2.22-2.22,23,23,0,0,1,2-2.22,3.45,3.45,0,0,1,2.57-1,2.52,2.52,0,0,1,2.39,1.06A4.78,4.78,0,0,1,539.45,148Zm-13.3-83.36q0-1.77-.09-4.26a34.36,34.36,0,0,0-.53-4.88,20.72,20.72,0,0,0-1.15-4.08q-.72-1.68-2-1.68c-1.19,0-2.13,1.66-2.84,5a102.63,102.63,0,0,0-1.69,13Q517.29,75.81,517,86t-.27,20.67V113a42.43,42.43,0,0,0,.35,5.77,102.22,102.22,0,0,0,7.45-27.14A222,222,0,0,0,526.15,64.64Z"/><path class="cls-3" d="M579.72,103.66a30.22,30.22,0,0,1-2.75,5.5,29,29,0,0,1-4.88,5.85,16.92,16.92,0,0,1,3.19,5.32,35.23,35.23,0,0,1,1.87,6.92,65.3,65.3,0,0,1,.79,7.54q.18,3.83.18,7.36c0,.59-.09,2.4-.27,5.41s-.53,6.56-1.06,10.64-1.24,8.4-2.13,13a88,88,0,0,1-3.37,12.6,38,38,0,0,1-4.79,9.58q-2.75,3.81-6.65,3.81a10.9,10.9,0,0,1-3.72-.8,29.13,29.13,0,0,1-4.17-2,22.13,22.13,0,0,1-3.82-2.75,12.72,12.72,0,0,1-2.66-3.19c-1.06-2-1.89-5.47-2.48-10.38a177.78,177.78,0,0,1-.89-20.13q0-6.91.54-14.55t1.24-17.2c-.83-.24-1.75-.53-2.75-.89a18.32,18.32,0,0,1-2.93-1.33,7.38,7.38,0,0,1-2.39-2.13,5.09,5.09,0,0,1-1-3.1,6.14,6.14,0,0,1,1-3.55,7.56,7.56,0,0,1,2.57-2.31,18.33,18.33,0,0,1,3.63-1.5c1.36-.42,2.69-.8,4-1.16q.71-3.9,2.48-10.73t3.55-14.81q1.77-8,3.1-16.05a88.63,88.63,0,0,0,1.33-14.28,33.19,33.19,0,0,0-.44-5.68,13.84,13.84,0,0,0-2.22-5.14A17,17,0,0,1,558,42a25.62,25.62,0,0,1,5.94-.62,11.63,11.63,0,0,1,2.93.45,11.19,11.19,0,0,1,3.19,1.41,11,11,0,0,1,2.57,2.31,4.82,4.82,0,0,1,1.07,3.1,31.37,31.37,0,0,1-1.6,9.58q-1.59,5-3,11.18c-.47,2.13-1,4.28-1.59,6.47s-1.3,4.73-2.13,7.63-1.77,6.36-2.84,10.38-2.37,9-3.9,15.07c1.42-.23,2.72-.47,3.9-.71s2.54-.53,4.08-.88,3.31-.83,5.32-1.42Zm-10.65,32.46c0-.23-.06-1.18-.17-2.84a48.9,48.9,0,0,0-.71-5.32,30.11,30.11,0,0,0-1.42-5.14q-.88-2.31-2.31-2.31a6.41,6.41,0,0,0-1.59.45,23,23,0,0,0-2.66,1.15l-3.55,1.77q-1.06,6.92-1.69,17.56t-1.15,28c0,.23,0,1.21.09,2.92s.18,3.58.35,5.59a25.54,25.54,0,0,0,1.07,5.5c.53,1.65,1.21,2.48,2,2.48,1.42,0,2.72-.91,3.9-2.75a27.18,27.18,0,0,0,3-6.91q1.23-4.17,2.21-9.14c.65-3.31,1.16-6.38,1.51-9.22s.62-5.26.8-7.27.26-3.14.26-3.37Z"/><path class="cls-3" d="M645.52,148a5.24,5.24,0,0,1-1.51,3.73,15.67,15.67,0,0,1-3.72,2.84,20.06,20.06,0,0,1-4.61,1.86,16.72,16.72,0,0,1-4,.62,40.23,40.23,0,0,1-6.65-.62,13.47,13.47,0,0,1-6.12-2.57,16.79,16.79,0,0,1-4.7-7.36,58,58,0,0,1-2.83-12.06q-1-7-1.33-15.61t-.36-18q0-3.9.27-8.69t.62-10c.23-3.49.53-7,.88-10.47s.71-6.82,1.07-10c.35-2.24.77-4.67,1.24-7.27s1-5.08,1.51-7.45a48.33,48.33,0,0,1,1.86-6.38,11.5,11.5,0,0,1,2.31-4.08,7,7,0,0,1,3.81-1.87,24.53,24.53,0,0,1,4.34-.44,9.76,9.76,0,0,1,6.57,2.13A13.61,13.61,0,0,1,638,42a33.58,33.58,0,0,1,1.78,8.34q.43,4.7.44,10,0,8.16-.53,17.65a164.4,164.4,0,0,1-2.22,19.07,123.7,123.7,0,0,1-4.79,18.62,67.41,67.41,0,0,1-8.25,16.5q.18,2.49.62,5.76a37.7,37.7,0,0,0,1.33,6.12,16.18,16.18,0,0,0,2.31,4.79,4.39,4.39,0,0,0,3.72,2,5.3,5.3,0,0,0,3.37-1,13,13,0,0,0,2.22-2.22,24.49,24.49,0,0,1,1.95-2.22,3.48,3.48,0,0,1,2.58-1,2.53,2.53,0,0,1,2.39,1.06A4.88,4.88,0,0,1,645.52,148Zm-13.3-83.36q0-1.77-.09-4.26a34.36,34.36,0,0,0-.53-4.88,20.68,20.68,0,0,0-1.16-4.08q-.71-1.68-2-1.68-1.77,0-2.84,5a101.09,101.09,0,0,0-1.68,13q-.63,8.07-.89,18.27t-.26,20.67V113a40.87,40.87,0,0,0,.35,5.77,102.6,102.6,0,0,0,7.45-27.14A224.06,224.06,0,0,0,632.22,64.64Z"/><path class="cls-3" d="M697.49,125.83a36.17,36.17,0,0,1-1.59,9.94,33.78,33.78,0,0,1-5,10.2,29.24,29.24,0,0,1-8.6,7.89,23.55,23.55,0,0,1-12.51,3.19,25.31,25.31,0,0,1-11.71-2.48,22.4,22.4,0,0,1-7.89-6.74,27.06,27.06,0,0,1-4.43-10,53.8,53.8,0,0,1-1.33-12.15A73.07,73.07,0,0,1,645.88,112a58.75,58.75,0,0,1,4.43-13.93,34.92,34.92,0,0,1,7.63-10.82,15.72,15.72,0,0,1,11.17-4.34,14,14,0,0,1,6,1.33,17.51,17.51,0,0,1,5,3.46,16.08,16.08,0,0,1,3.37,5,17.29,17.29,0,0,1,1.42,5.86l.18,2.48a34.87,34.87,0,0,1-1.42,9.31,37.28,37.28,0,0,1-4.08,9.4A26.11,26.11,0,0,1,673,127a14.4,14.4,0,0,1-8.87,2.92,18.56,18.56,0,0,1-2.21-.17,17.46,17.46,0,0,1-2.57-.54v5.15a11.76,11.76,0,0,0,.79,3.54,17.73,17.73,0,0,0,2.4,4.53,15.34,15.34,0,0,0,4.17,3.9A11.16,11.16,0,0,0,673,148a15.76,15.76,0,0,0,8.43-2,17.57,17.57,0,0,0,5.41-5.24,25.74,25.74,0,0,0,3.28-7.18q1.15-4,1.86-7.72a12.59,12.59,0,0,1,1.07-3.37,1.89,1.89,0,0,1,1.77-.88c1.77,0,2.66,1,2.66,3ZM676.56,98.34a6.69,6.69,0,0,0-.8-3,3,3,0,0,0-2.92-1.59c-2.13,0-4,1.12-5.5,3.37a32.63,32.63,0,0,0-3.82,7.71,55.07,55.07,0,0,0-2.21,8.34,37.83,37.83,0,0,0-.71,5.23v.54a10.48,10.48,0,0,0,.26,2.57c.18.65.8,1,1.87,1h.88a7.9,7.9,0,0,0,6-2.66,20.33,20.33,0,0,0,4-6.38,38.43,38.43,0,0,0,2.22-7.63,37.49,37.49,0,0,0,.71-6.39Z"/><path class="cls-3" d="M762.94,133.81a24.88,24.88,0,0,1-1.77,5.86,33.2,33.2,0,0,1-3.64,6.47,22.86,22.86,0,0,1-5.14,5.24,10.81,10.81,0,0,1-6.48,2.12,12.58,12.58,0,0,1-9.31-4.08q-4-4.06-4.88-11.53c-.71,1.9-1.54,4.08-2.48,6.57a35,35,0,0,1-3.55,6.92,24,24,0,0,1-4.88,5.41,10,10,0,0,1-6.47,2.21,5.78,5.78,0,0,1-1.6-.17c-.35-.12-.74-.27-1.15-.45a7.41,7.41,0,0,0-1.42-.44,10.59,10.59,0,0,0-2.22-.18,10.11,10.11,0,0,1-7.18-2.75,20,20,0,0,1-4.7-7,40.48,40.48,0,0,1-2.57-9.31,61.25,61.25,0,0,1-.8-9.49A169.16,169.16,0,0,1,693.85,109,76.85,76.85,0,0,1,697.67,92a32,32,0,0,1,6.91-11.7A13.88,13.88,0,0,1,714.87,76a18.14,18.14,0,0,1,5.41.62A27.43,27.43,0,0,1,723.74,78c1.06.53,2.22,1.1,3.46,1.69a19.55,19.55,0,0,0,5.23,1.41,12.66,12.66,0,0,1,5.23,5.06,19.06,19.06,0,0,1,2,6.3,39.35,39.35,0,0,1,.26,7,35.9,35.9,0,0,0,.36,7.19c0,.12.26.29.79.53l1.87.8a5.62,5.62,0,0,1,1.86,1.24,2.77,2.77,0,0,1,.8,2V112a31.45,31.45,0,0,0-2.13,8.16q-.36,3.54-.36,8.51c0,1.66.09,3.46.27,5.41a37.62,37.62,0,0,0,.89,5.5,11.67,11.67,0,0,0,1.86,4.26,3.81,3.81,0,0,0,3.19,1.68,4.85,4.85,0,0,0,3.82-2.13,20.88,20.88,0,0,0,2.83-4.87,48.11,48.11,0,0,0,2-5.59,31.15,31.15,0,0,0,1-4.26q.36-2.13,1.77-2.13a2.24,2.24,0,0,1,1.69,1,5.61,5.61,0,0,1,.8,3.46v1.33A7.73,7.73,0,0,1,762.94,133.81Zm-32.81-28.73a35,35,0,0,0-.36-4.61,22.06,22.06,0,0,0-1.24-5,10,10,0,0,0-2.66-3.9,6.91,6.91,0,0,0-4.79-1.6A9.41,9.41,0,0,0,713,94.53a36.57,36.57,0,0,0-4.88,10.64,63.81,63.81,0,0,0-2.3,12.59q-.54,6.48-.54,10.2,0,2.83.27,6.83a57.57,57.57,0,0,0,1,7.54,21.85,21.85,0,0,0,2,6c.89,1.66,2,2.48,3.46,2.48a9,9,0,0,0,7.9-4,29.35,29.35,0,0,0,4.16-9.93,89,89,0,0,0,2-12.77q.63-6.83,1.16-12.51c.23-2,.77-3.28,1.59-3.81s1.25-.92,1.25-1.15Z"/><path class="cls-3" d="M809.94,128.14a48,48,0,0,1-.8,5.94,51.15,51.15,0,0,1-2.83,9.93,32.73,32.73,0,0,1-5.5,9.32,11.06,11.06,0,0,1-8.78,4.08,11.24,11.24,0,0,1-9-4,27.62,27.62,0,0,1-5.14-9.58,54,54,0,0,1-2.31-11.71Q775,126,775,121.93a83.83,83.83,0,0,1,.53-9.31c.36-3.13.59-6.24.71-9.31a1.68,1.68,0,0,0-1.42-1.78,11.32,11.32,0,0,0-2.66-.35,4.25,4.25,0,0,0-2.66.53,2.67,2.67,0,0,0-.71,1.24l-.71,5.68q-.71,5.67-1.51,10.91t-1.77,9.22a26.1,26.1,0,0,1-2.31,6.39c-.88,1.59-1.92,2.39-3.1,2.39h-.18a2.73,2.73,0,0,1-1.33-.35c-.41-.24-.62-.83-.62-1.78a9.65,9.65,0,0,1,.36-2.13A79.63,79.63,0,0,0,759.39,123c.24-2.72.41-5.15.53-7.28v-1.24q0-.89.09-2.13c.06-.82.09-1.83.09-3v-8.69a33.86,33.86,0,0,0-.35-4.62l-.54-10.46a2.72,2.72,0,0,1,.89-1.95,8.93,8.93,0,0,1,2.31-1.6,13.27,13.27,0,0,1,3-1.06,13.11,13.11,0,0,1,2.84-.36q3,0,3,3.9v.89l-.17,3.9v1.07c0,.83.17,1.33.53,1.51a11.56,11.56,0,0,0,2.13.62h.53c.94.12,2.48.23,4.61.35a60.32,60.32,0,0,1,6.39.71,20.69,20.69,0,0,1,5.58,1.69,3.58,3.58,0,0,1,2.4,3.28,8.55,8.55,0,0,1-.36,2,23.64,23.64,0,0,1-.88,2.66c-.36.88-.65,1.68-.89,2.39a5.62,5.62,0,0,0-.35,1.42,100.7,100.7,0,0,0-3.2,25.54c0,.71.06,2,.18,3.91a54.15,54.15,0,0,0,.71,5.85,21.47,21.47,0,0,0,1.6,5.32c.71,1.54,1.59,2.31,2.66,2.31q2.65,0,4.79-3.29a38.07,38.07,0,0,0,3.72-7.62,68.53,68.53,0,0,0,2.57-8.78c.65-3,1.1-5.15,1.33-6.57s.62-2.09,1.16-2.39a3.15,3.15,0,0,1,1.5-.44c1.66,0,2.49,1.06,2.49,3.19q0,.36-.09,1.86A13,13,0,0,1,809.94,128.14Z"/><path class="cls-3" d="M832.47,114.48a34.85,34.85,0,0,0-4.35,8.25,90.35,90.35,0,0,0-2.92,9.4q-1.25,4.88-2,9.76t-1.69,9.31c-.24.71-1.15,1.18-2.75,1.42a25.86,25.86,0,0,1-3.46.35,31.18,31.18,0,0,1-5.23-.35,4.84,4.84,0,0,1-3.1-1.69,9.36,9.36,0,0,1-1.6-4.08,67.06,67.06,0,0,1-.89-7.36l2.31-52.68c0-1.54.82-2.31,2.48-2.31a16.1,16.1,0,0,1,2.49.27,27.55,27.55,0,0,1,3.37.8,11.81,11.81,0,0,1,3,1.33,2.24,2.24,0,0,1,1.24,1.86v36a4.67,4.67,0,0,0,.53-1.42q1.25-3.19,3-7.89a93.72,93.72,0,0,1,3.9-9,41.92,41.92,0,0,1,4.52-7.27q2.4-3,4.88-3a7.11,7.11,0,0,1,4.88,1.51,9.77,9.77,0,0,1,2.57,3.81,17.05,17.05,0,0,1,1.07,5c.11,1.77.17,3.49.17,5.14q0,1.78-.35,5.86t-.35,12.24a36.09,36.09,0,0,0,.88,8.33c.59,2.49,1.78,3.73,3.55,3.73a4.71,4.71,0,0,0,3.55-1.78,19.78,19.78,0,0,0,2.92-4.43,34.2,34.2,0,0,0,2.22-5.68,26,26,0,0,0,1.06-5.67q.18-3.37,2.67-3.37a2.13,2.13,0,0,1,2.12,1.06,5.42,5.42,0,0,1,.54,2.48v.36a40.65,40.65,0,0,1-1.33,8,34.55,34.55,0,0,1-3.37,8.34,21.14,21.14,0,0,1-5.77,6.56,14.1,14.1,0,0,1-8.69,2.66q-8,0-10.2-5.76t-2.22-17.12Z"/><path class="cls-3" d="M882.66,71a2.35,2.35,0,0,1-1.24,2,8.64,8.64,0,0,1-2.75,1.16,27.36,27.36,0,0,1-2.92.53c-1,.12-1.54.18-1.78.18a14.42,14.42,0,0,1-7.36-2.13A20.77,20.77,0,0,1,860,66.06c-.24-.36-.59-.83-1.07-1.42a2.67,2.67,0,0,1-.7-1.24c0-.59.44-1.13,1.33-1.6s1.89-.94,3-1.42a20.87,20.87,0,0,1,3.19-1.06,11,11,0,0,1,2-.36,15.26,15.26,0,0,1,7,1.78q3.47,1.77,5.59,6.56c.23.35.68,1,1.33,1.86A4.21,4.21,0,0,1,882.66,71Zm18.1,53.75a52.51,52.51,0,0,1-2,8.87,34.21,34.21,0,0,1-4,8.6,22,22,0,0,1-6.47,6.56,17,17,0,0,1-9.58,2.58,16.48,16.48,0,0,1-9-3,16,16,0,0,1-6.3-8.34,31.67,31.67,0,0,1-1.69-9.93q0-1.41.18-4.26t.18-6.91V99.4c0-.94,0-2-.09-3a16.76,16.76,0,0,0-.44-3,7.89,7.89,0,0,0-.63-1.59,3.57,3.57,0,0,1-.44-1.24,1.33,1.33,0,0,1,.89-1.16,7.07,7.07,0,0,1,2-.62,20.49,20.49,0,0,1,3-.18q.54,0,2.49.09a21.16,21.16,0,0,1,4.08.62A11.75,11.75,0,0,1,876.72,91a3.75,3.75,0,0,1,1.69,3.28,3.08,3.08,0,0,1-.62,1.95,18.14,18.14,0,0,0-1.51,5c-.12.95-.24,1.8-.36,2.57s-.24,1.63-.35,2.57-.24,2.1-.36,3.46-.24,3.1-.35,5.23v10.65q0,2.84.18,5.76a27.59,27.59,0,0,0,.79,5.32,8.86,8.86,0,0,0,2,3.9,4.88,4.88,0,0,0,3.73,1.51,7.2,7.2,0,0,0,5.32-2,32.82,32.82,0,0,0,3-3.37,19.74,19.74,0,0,0,3-6.65q1.06-4,1.95-8.25l.36-1.77a3,3,0,0,1,3.19-2.66q2.65,0,2.66,3.72v.89Z"/><path class="cls-3" d="M922.75,114.48a35.59,35.59,0,0,0-4.35,8.25,90.35,90.35,0,0,0-2.92,9.4q-1.25,4.88-2,9.76t-1.69,9.31c-.24.71-1.15,1.18-2.75,1.42a25.86,25.86,0,0,1-3.46.35,31.26,31.26,0,0,1-5.23-.35,4.86,4.86,0,0,1-3.1-1.69,9.49,9.49,0,0,1-1.6-4.08,69.62,69.62,0,0,1-.89-7.36L897,86.81c0-1.54.83-2.31,2.48-2.31a16.1,16.1,0,0,1,2.49.27,27.55,27.55,0,0,1,3.37.8,11.81,11.81,0,0,1,3,1.33,2.24,2.24,0,0,1,1.24,1.86v36a4.85,4.85,0,0,0,.54-1.42c.82-2.13,1.83-4.76,3-7.89a93.72,93.72,0,0,1,3.9-9,41.33,41.33,0,0,1,4.53-7.27c1.59-2,3.22-3,4.87-3a7.11,7.11,0,0,1,4.88,1.51,9.77,9.77,0,0,1,2.57,3.81,17.05,17.05,0,0,1,1.07,5c.11,1.77.18,3.49.18,5.14q0,1.78-.36,5.86t-.35,12.24a36.09,36.09,0,0,0,.88,8.33c.59,2.49,1.78,3.73,3.55,3.73a4.71,4.71,0,0,0,3.55-1.78,19.78,19.78,0,0,0,2.92-4.43,34.2,34.2,0,0,0,2.22-5.68,26.62,26.62,0,0,0,1.07-5.67q.17-3.37,2.66-3.37a2.13,2.13,0,0,1,2.12,1.06,5.42,5.42,0,0,1,.54,2.48v.36a40.65,40.65,0,0,1-1.33,8,34.55,34.55,0,0,1-3.37,8.34,21.14,21.14,0,0,1-5.77,6.56,14.1,14.1,0,0,1-8.69,2.66q-8,0-10.2-5.76t-2.22-17.12Z"/><path class="cls-3" d="M1008.6,157.76a2.5,2.5,0,0,1-1.6,2.48,7.31,7.31,0,0,1-3,.71l-3.55-.35c-.59,0-.89.35-.89,1.06l-.18,2.13q.18,4.78.18,12.06v14c0,4.72-.15,9.37-.44,13.92a56.8,56.8,0,0,1-2,12.24,22.52,22.52,0,0,1-4.52,8.69,10.28,10.28,0,0,1-8.08,3.28c-3,0-6.06-.15-9.31-.44a28.12,28.12,0,0,1-8.87-2.22,16.17,16.17,0,0,1-6.56-5.23q-2.57-3.47-2.57-9.31a56.11,56.11,0,0,1,1.34-12,63.83,63.83,0,0,1,3.84-11.88,69.59,69.59,0,0,1,6-11,59.35,59.35,0,0,1,7.59-9.31q2.15-2.13,4.73-4.35t4.55-3.63v-.18c.24-2.48.42-5,.54-7.45s.17-5,.17-7.63q-.89,1.61-2.14,4.35a34.38,34.38,0,0,1-2.94,5.23,22.36,22.36,0,0,1-3.83,4.35,7.15,7.15,0,0,1-4.81,1.86,5.61,5.61,0,0,1-2.5-.53,6.86,6.86,0,0,0-3-.53,16.3,16.3,0,0,1-8.29-2.66,15.47,15.47,0,0,1-5.17-6.39,33.64,33.64,0,0,1-2.58-9.67,98.48,98.48,0,0,1-.71-12.5,155.21,155.21,0,0,1,1-17.21,76.86,76.86,0,0,1,3.47-16.23A34.64,34.64,0,0,1,961,81.4a13.58,13.58,0,0,1,10.6-4.7,4.93,4.93,0,0,1,1.87.53L976,78.38l2.67,1.25a11.83,11.83,0,0,0,2.05.79,49.59,49.59,0,0,1,6.59,1.78A17.91,17.91,0,0,1,992.44,85a11.66,11.66,0,0,1,3.38,4.43,16.57,16.57,0,0,1,1.25,6.83,27.94,27.94,0,0,1-.44,5.15,31.29,31.29,0,0,0-.45,5.85,2,2,0,0,0,1,2,11.71,11.71,0,0,0,2.31.89,21.71,21.71,0,0,1,2.36.79,1.81,1.81,0,0,1,1.06,1.87,4.9,4.9,0,0,1-.8,1.68c-.53.89-.86,1.45-1,1.69a20.59,20.59,0,0,0-.89,4.52c-.24,2.07-.41,4.32-.53,6.74s-.21,4.91-.27,7.45-.09,4.82-.09,6.83v6.12q0,3.81.18,6.3h.71a2.88,2.88,0,0,0,.71-.09,2.39,2.39,0,0,1,.53-.09,14,14,0,0,1,4.35,1C1007.68,155.48,1008.6,156.46,1008.6,157.76ZM986.07,103a31.15,31.15,0,0,0-.36-4.43,19.6,19.6,0,0,0-1.25-4.7,9.79,9.79,0,0,0-2.59-3.73,6.12,6.12,0,0,0-4.2-1.51,9.34,9.34,0,0,0-6.34,2.66,22.81,22.81,0,0,0-5.18,7.54,52.33,52.33,0,0,0-3.57,11.89,84.39,84.39,0,0,0-1.34,15.87q0,3.73.27,7.72a57.53,57.53,0,0,0,.88,7.18,15.67,15.67,0,0,0,2,5.32,4,4,0,0,0,3.46,2.13,8.54,8.54,0,0,0,6.56-3.19,26.22,26.22,0,0,0,4.7-7.89,53.9,53.9,0,0,0,2.84-9.76,63.61,63.61,0,0,0,1.16-8.78,51.54,51.54,0,0,1,.56-7,7.09,7.09,0,0,1,.76-2.39,6.94,6.94,0,0,0,1.41-3.37A24.64,24.64,0,0,0,986.07,103Zm-.71,61.55a32.23,32.23,0,0,0-7.78,8,63.88,63.88,0,0,0-6.36,11.18A72,72,0,0,0,967,195.9a47,47,0,0,0-1.52,11.17,23.47,23.47,0,0,0,.35,3.9,17.08,17.08,0,0,0,1.17,4,8,8,0,0,0,2.32,3.11,5.68,5.68,0,0,0,3.67,1.24,7.52,7.52,0,0,0,6.18-3.1,23.39,23.39,0,0,0,3.76-7.37,43.55,43.55,0,0,0,1.79-8.69c.29-3,.44-5.32.44-7.09v-1.6q0-1.07.09-4.08t.09-8.42Z"/></g></g></svg>