<svg xmlns="http://www.w3.org/2000/svg" xmlns:xlink="http://www.w3.org/1999/xlink" viewBox="0 0 520.25 303.95"><defs><style>.cls-1{fill:url(#linear-gradient);}.cls-2{fill:url(#linear-gradient-2);}.cls-3{fill:#235884;}.cls-4{fill:#2c3835;}</style><linearGradient id="linear-gradient" x1="130.09" y1="303.21" x2="130.09" gradientUnits="userSpaceOnUse"><stop offset="0" stop-color="#e691bd"/><stop offset="1" stop-color="#f1c7b1"/></linearGradient><linearGradient id="linear-gradient-2" x1="389.84" y1="303.95" x2="389.84" y2="1.44" gradientUnits="userSpaceOnUse"><stop offset="0" stop-color="#b6cdea"/><stop offset="1" stop-color="#ebedf7"/></linearGradient></defs><g id="Layer_2" data-name="Layer 2"><g id="Layer_1-2" data-name="Layer 1"><path class="cls-1" d="M259.66,257.55c-26.48,27.13-57.93,42.37-96.41,45.18-42.7,3.12-80.21-9-112.21-35.61a138.16,138.16,0,0,1-41.38-59C-10.09,153.39-.44,84.59,46.86,42.53,78.17,14.69,114.26-1.55,156.17.12c36.21,1.43,68.73,15.13,96,39.66,2.42,2.17,4.4,4.42,7.56,5.31.15,1.55.31,3.11.46,4.66-54.57,60.78-57.84,140.82-.45,205.33A3,3,0,0,0,259.66,257.55Zm-164.16-81c6.84.16,13-1.6,16.69-7.73,3-4.93,7.57-11.67,1.61-15.84-7.73-5.41-7.11,3.8-9.81,7.7-5.81,8.43-12.21,8.36-17.09-1-2.16-4.11-2.45-10.94-9.17-7-5.23,3.09-2.36,8.88-.42,13.1C80.78,173.41,87.14,176.89,95.5,176.55Zm-58-57.25c-7.62,1-13,4.78-12.88,13.11.13,7.33,4.59,11.84,12,12.17s12.3-4,13-11.15C50.4,125.27,45.4,120.85,37.45,119.3Zm144.76,13c-1.13-7.16-4.94-12.61-13.15-12.62-7.24,0-12.06,4.15-12.41,11.71s3.65,12.19,11,13.07C176,145.48,180.28,140.57,182.21,132.32Z"/><path class="cls-2" d="M260.18,49.75c-.15-1.55-.31-3.11-.46-4.66,18.89-12.88,37.1-26.35,59.11-34.55,32.14-12,64.06-11.61,95.8-1.91,53.1,16.22,87.5,53.08,100.72,105.94,8.24,33,6.54,67.4-8.65,100.21-21.44,46.34-57.78,74.64-105.89,85.29-35.88,7.94-72.56,4.17-105.52-15.7-12.78-7.71-25.48-15.59-35.63-26.82a3,3,0,0,1,.07-2.47C315.53,200.54,315,103.14,260.18,49.75ZM427.12,176.52c7.86-.48,14.85-5,17.23-15.27.87-3.76,1.24-8-3.32-9.37-3.59-1.1-5,2-6.76,5-7.84,13.3-10.82,13.21-19.37-.23-1.77-2.78-3.21-5.88-7.08-4.42-3.59,1.36-3.89,4.62-3.19,8C406.91,171.19,413.68,176.57,427.12,176.52Zm55.37-32c7.65-.17,12.55-3.91,13-11.39.54-8.4-4.66-13.22-12.65-13.32-7.39-.08-12.12,4.91-12.21,12.23S475.08,143.67,482.49,144.49Zm-131-25.06c-7.22.82-12.41,4.73-12.87,12s3.7,12.45,11.31,12.94c8.22.52,13.34-3.74,13.56-12.22C363.67,124.27,358.43,120.91,351.46,119.43Z"/><path class="cls-3" d="M260.18,49.75c54.78,53.39,55.35,150.79-.45,205.33C202.34,190.57,205.61,110.53,260.18,49.75Z"/><path class="cls-4" d="M95.51,176.54c-8.37.35-14.73-3.13-18.2-10.71-1.94-4.22-4.81-10,.42-13.1,6.72-4,7,2.86,9.17,7,4.88,9.34,11.28,9.41,17.09,1,2.7-3.9,2.08-13.11,9.81-7.7,6,4.17,1.34,10.91-1.61,15.84C108.53,175,102.34,176.71,95.51,176.54Z"/><path class="cls-4" d="M37.45,119.3c7.95,1.55,12.95,6,12.15,14.13-.7,7.18-5.51,11.49-13,11.15s-11.9-4.84-12-12.17C24.42,124.08,29.83,120.28,37.45,119.3Z"/><path class="cls-4" d="M182.21,132.32c-1.93,8.25-6.18,13.16-14.55,12.16-7.36-.88-11.36-5.64-11-13.07s5.17-11.73,12.41-11.71C177.27,119.71,181.08,125.16,182.21,132.32Z"/><path class="cls-4" d="M427.12,176.52c-13.44,0-20.21-5.33-22.49-16.3-.7-3.39-.4-6.65,3.19-8,3.87-1.46,5.31,1.64,7.08,4.42,8.55,13.44,11.53,13.53,19.37.23,1.74-3,3.17-6.08,6.76-5,4.56,1.39,4.19,5.61,3.32,9.37C442,171.54,435,176,427.12,176.52Z"/><path class="cls-4" d="M482.49,144.49c-7.41-.82-11.93-5.18-11.83-12.48s4.82-12.31,12.21-12.23c8,.1,13.19,4.92,12.65,13.32C495,140.58,490.14,144.32,482.49,144.49Z"/><path class="cls-4" d="M351.46,119.43c7,1.48,12.21,4.84,12,12.68-.22,8.48-5.34,12.74-13.56,12.22-7.61-.49-11.76-5.76-11.31-12.94S344.24,120.25,351.46,119.43Z"/></g></g></svg>