<svg xmlns="http://www.w3.org/2000/svg" xmlns:xlink="http://www.w3.org/1999/xlink" width="28" height="27" viewBox="0 0 28 27">
  <defs>
    <clipPath id="clip-path">
      <rect id="Rectangle_45" data-name="Rectangle 45" width="28" height="27" transform="translate(-0.357 0.323)" fill="#fff"/>
    </clipPath>
  </defs>
  <g id="store" transform="translate(0.357 -0.323)" clip-path="url(#clip-path)">
    <path id="Path_79" data-name="Path 79" d="M267.769,30.232a2.841,2.841,0,0,0-2.978,2.682v1.461h-2.479V32.914a5.486,5.486,0,0,1,10.913,0v1.461h-2.478V32.914A2.842,2.842,0,0,0,267.769,30.232Zm7.33,6.375H259.79A1.59,1.59,0,0,0,258.141,38l-.651,9.387c-.208,3,2.435,5.532,5.77,5.532h8.37c3.335,0,5.978-2.534,5.77-5.532L276.749,38A1.59,1.59,0,0,0,275.1,36.607ZM259.79,34.375a3.974,3.974,0,0,0-4.123,3.487l-.651,9.387c-.3,4.283,3.479,7.9,8.243,7.9h8.37c4.764,0,8.54-3.62,8.243-7.9l-.65-9.387a3.974,3.974,0,0,0-4.123-3.487Zm10.958,4.967a3,3,0,0,1-5.958,0V39.05a1.246,1.246,0,0,0-2.478,0v.292a5.486,5.486,0,0,0,10.913,0V39.05a1.246,1.246,0,0,0-2.478,0Z" transform="translate(-253.869 -28)" fill-rule="evenodd"/>
  </g>
</svg>
