<svg xmlns="http://www.w3.org/2000/svg" width="21.499" height="21.5" viewBox="0 0 21.499 21.5">
  <g id="Logout" transform="translate(-56.483 -789.5)">
    <path id="Union_11" data-name="Union 11" d="M455.827,21.5a.828.828,0,0,1-.827-.828V.827A.827.827,0,0,1,455.827,0h9.918a.827.827,0,1,1,0,1.654h-9.092V19.846h9.1a.827.827,0,0,1,0,1.654Zm14.3-5.2a.825.825,0,0,1,0-1.169l3.554-3.554H461.339a.827.827,0,0,1,0-1.653h12.334l-3.546-3.547A.827.827,0,0,1,471.3,5.2l4.912,4.912a.825.825,0,0,1,.292.63q0,.025,0,.05a.823.823,0,0,1-.241.538L471.3,16.3a.825.825,0,0,1-1.169,0Z" transform="translate(-398.518 789.5)" fill="#1c1b1f"/>
  </g>
</svg>
