<svg xmlns="http://www.w3.org/2000/svg" width="89.582" height="19.206" viewBox="0 0 89.582 19.206">
  <g id="Group_35" data-name="Group 35" transform="translate(0)">
    <text id="Karmabay" transform="translate(17.582 14)" fill="#55331d" font-size="14" font-family="CenturyGothic, Century Gothic"><tspan x="0" y="0">Karmabay</tspan></text>
    <path id="Path_316" data-name="Path 316" d="M4131.883,2725.338c.245-.024.419-.051.6-.057.861-.029,1.725-.042,2.585-.081.283-.012.334.107.324.354q-.134,2.984-.25,5.969c-.049,1.189-.1,2.379-.14,3.569a3.145,3.145,0,0,1-3.232,3.142q-3.664.007-7.33.006a3.157,3.157,0,0,1-3.173-3.144q-.069-1.7-.14-3.41c-.083-2.031-.161-4.063-.257-6.094-.015-.307.064-.408.375-.391.987.054,1.975.087,2.962.126.051,0,.1-.006.216-.013a3.889,3.889,0,0,1,4.068-4.331,3.622,3.622,0,0,1,2.593,1.459A3.869,3.869,0,0,1,4131.883,2725.338Zm2.154,1.166a7.309,7.309,0,0,0-4.9,1.381c.452.546.9,1.045,1.3,1.584a2.851,2.851,0,0,1,.552,2.27,2.908,2.908,0,0,1-5.13,1.332,2.794,2.794,0,0,1-.344-3.086,6.55,6.55,0,0,1,1.4-1.82c.077-.08.148-.164.237-.262a7.273,7.273,0,0,0-4.92-1.388c0,.156,0,.27,0,.384.039.873.083,1.746.118,2.619.074,1.842.135,3.684.216,5.526a1.954,1.954,0,0,0,2.058,1.945q3.49,0,6.98,0a1.963,1.963,0,0,0,2.088-2.042c.072-1.884.156-3.768.232-5.652C4133.966,2728.377,4134,2727.463,4134.037,2726.5Zm-3.306-1.568c0-.094,0-.189,0-.284a2.587,2.587,0,0,0-4.719-1.458,3.413,3.413,0,0,0-.436,2.307c0,.073.136.171.228.2a7.259,7.259,0,0,1,2.09,1.156c.193.154.307.106.49-.008.57-.353,1.144-.709,1.745-1S4130.737,2725.594,4130.731,2724.936Zm-2.516,3.806-.165,0c-.467.548-.956,1.08-1.391,1.652a1.428,1.428,0,0,0-.219,1.209,1.659,1.659,0,0,0,1.343,1.349,1.615,1.615,0,0,0,1.726-.656,1.558,1.558,0,0,0,.094-1.892A19.233,19.233,0,0,0,4128.216,2728.741Z" transform="translate(-4120.864 -2719.035)" fill="#55331d"/>
  </g>
</svg>
