<svg xmlns="http://www.w3.org/2000/svg" width="25.039" height="26.482" viewBox="0 0 25.039 26.482">
  <g id="Group_36" data-name="Group 36" transform="translate(0.999 1)">
    <path id="Path_317" data-name="Path 317" d="M4720.139,2749.432h-10.632c-3.906,0-6.9-1.411-6.05-7.088l.991-7.694c.525-2.834,2.332-3.918,3.917-3.918h12.963c1.609,0,3.312,1.165,3.918,3.918l.991,7.694C4726.958,2747.38,4724.043,2749.432,4720.139,2749.432Z" transform="translate(-4703.311 -2724.949)" fill="none" stroke="#130f26" stroke-linecap="round" stroke-linejoin="round" stroke-width="2"/>
    <path id="Path_318" data-name="Path 318" d="M4729.561,2721.5a5.5,5.5,0,0,0-5.5-5.5h0a5.5,5.5,0,0,0-5.526,5.5h0" transform="translate(-4712.558 -2716)" fill="none" stroke="#130f26" stroke-linecap="round" stroke-linejoin="round" stroke-width="2"/>
    <path id="Path_319" data-name="Path 319" d="M4742.143,2744.633h-.059" transform="translate(-4726.865 -2733.394)" fill="none" stroke="#130f26" stroke-linecap="round" stroke-linejoin="round" stroke-width="2"/>
    <path id="Path_320" data-name="Path 320" d="M4723.226,2744.633h-.06" transform="translate(-4715.373 -2733.394)" fill="none" stroke="#130f26" stroke-linecap="round" stroke-linejoin="round" stroke-width="2"/>
  </g>
</svg>
